<svg xmlns="http://www.w3.org/2000/svg" viewBox="0 0 64 64" role="img" aria-labelledby="t">
  <title id="t">true-shuffle</title>
  <defs>
    <linearGradient id="wood" x1="0" x2="1">
      <stop offset="0" stop-color="#3d2312"/><stop offset=".5" stop-color="#83502a"/><stop offset="1" stop-color="#3d2312"/>
    </linearGradient>
    <pattern id="cloth" width="2" height="2" patternUnits="userSpaceOnUse">
      <rect width="2" height="2" fill="#8f7342"/><rect width="1" height="1" fill="#dcc38b"/><rect x="1" y="1" width="1" height="1" fill="#c0a36b"/>
    </pattern>
    <radialGradient id="glass" cx=".5" cy=".45" r=".7">
      <stop offset="0" stop-color="#fbf3d9"/><stop offset="1" stop-color="#e4cf9e"/>
    </radialGradient>
    <radialGradient id="eye">
      <stop offset=".34" stop-color="#0d4a2b"/><stop offset=".72" stop-color="#40cf84"/><stop offset=".96" stop-color="#c8ffd9"/>
    </radialGradient>
  </defs>
  <rect width="64" height="64" rx="15" fill="url(#wood)"/>
  <rect x="6" y="6" width="52" height="25" rx="9" fill="url(#cloth)" stroke="#c89c48" stroke-width="1.5"/>
  <circle cx="45.5" cy="18.5" r="7.2" fill="#c89c48"/>
  <circle cx="45.5" cy="18.5" r="5.6" fill="url(#eye)"/>
  <path d="M45.5 18.5 43.9 13.1a5.6 5.6 0 0 1 3.2 0z" fill="#04100a"/>
  <circle cx="45.5" cy="18.5" r="1.9" fill="#18221b"/>
  <rect x="6" y="35" width="52" height="15" rx="4" fill="url(#glass)" stroke="#c89c48" stroke-width="1.5"/>
  <path d="M10 46.5h44" stroke="#2b1d12" stroke-opacity=".55"/>
  <path d="M12 46.5v-2M17 46.5v-2M22 46.5v-2M27 46.5v-2M37 46.5v-2M42 46.5v-2M47 46.5v-2M52 46.5v-2" stroke="#2b1d12" stroke-opacity=".5"/>
  <rect x="10" y="39" width="10" height="2.4" rx="1" fill="#2b1d12" fill-opacity=".7"/>
  <rect x="23" y="39" width="11" height="2.4" rx="1" fill="#2b1d12" fill-opacity=".7"/>
  <rect x="43" y="39" width="11" height="2.4" rx="1" fill="#2b1d12" fill-opacity=".7"/>
  <rect x="37.5" y="36.5" width="2" height="12" rx=".5" fill="#a8221a"/>
  <rect x="6" y="53" width="52" height="7" rx="2" fill="#1a110a"/>
  <g fill="#f0e6cd"><rect x="8" y="54" width="11" height="6" rx="1"/><rect x="20.5" y="54" width="11" height="6" rx="1"/><rect x="33" y="55.5" width="11" height="4.5" rx="1" fill="#dccfae"/><rect x="45.5" y="54" width="11" height="6" rx="1"/></g>
</svg>
