<svg xmlns="http://www.w3.org/2000/svg" viewBox="0 0 64 64"><title>true-shuffle</title><rect width="64" height="64" rx="14" fill="#141210"/><g fill="#eeedea"><rect x="10.25" y="8" width="6" height="5" rx="1"/><rect x="22.75" y="8" width="6" height="5" rx="1"/><rect x="35.25" y="8" width="6" height="5" rx="1"/><rect x="47.75" y="8" width="6" height="5" rx="1"/><rect x="10.25" y="51" width="6" height="5" rx="1"/><rect x="22.75" y="51" width="6" height="5" rx="1"/><rect x="35.25" y="51" width="6" height="5" rx="1"/><rect x="47.75" y="51" width="6" height="5" rx="1"/><rect x="11" y="20" width="42" height="24" rx="1"/></g><path d="M9.6 19.1c13.6-1.9 31.4-2.2 45.1-.3 1 6.8.9 13.6-.4 20.8-13.4 1.8-31.6 1.9-44.5-.3-1.1-5.9-1.4-13.6-.2-20.2" fill="none" stroke="#ff4b2b" stroke-width="4" stroke-linecap="round" stroke-linejoin="round"/></svg>
